Coordinates
version=1
nRows=11
nColumns=21
inDegrees=yes

Units are S.I. units (second, meters, Newtons, ...)
If the header above contains a line with 'inDegrees', this indicates whether rotational values are in degrees (yes) or radians (no).

endheader
time	sternoclavicular_r2	sternoclavicular_r3	unrotscap_r3	unrotscap_r2	acromioclavicular_r2	acromioclavicular_r3	acromioclavicular_r1	unrothum_r1	unrothum_r3	unrothum_r2	elv_angle	shoulder_elev	shoulder1_r2	shoulder_rot	elbow_flexion	pro_sup	deviation	flexion	wrist_hand_r1	wrist_hand_r3
      5.05050505	     -5.31850599	      2.25266812	     -2.25266812	      5.31850599	     -1.07688928	      8.70304032	      3.91195673	     -3.91195673	     -8.70304032	      1.07688928	    -66.17763504	     21.97724821	     66.17763504	      6.69883464	     90.21127051	      0.00000000	      0.00000000	     -0.00000000	     -0.00000000	      0.00000000
      5.15151515	     -5.16181560	      2.18630146	     -2.18630146	      5.16181560	     -1.04516266	      8.44663698	      3.79670519	     -3.79670519	     -8.44663698	      1.04516266	    -66.06207658	     21.32976873	     66.06207658	      6.69711391	     88.61708252	      0.00000000	      0.00000000	     -0.00000000	     -0.00000000	      0.00000000
      5.25252525	     -5.00130774	      2.11831791	     -2.11831791	      5.00130774	     -1.01266308	      8.18398682	      3.67864575	     -3.67864575	     -8.18398682	      1.01266308	    -65.94193410	     20.66651458	     65.94193410	      6.68440761	     87.00313190	      0.00000000	      0.00000000	     -0.00000000	     -0.00000000	      0.00000000
      5.35353535	     -4.83707160	      2.04875523	     -2.04875523	      4.83707160	     -0.97940861	      7.91523584	      3.55784403	     -3.55784403	     -7.91523584	      0.97940861	    -65.81634634	     19.98785438	     65.81634634	      6.66008244	     85.37079281	      0.00000000	      0.00000000	     -0.00000000	     -0.00000000	      0.00000000
      5.45454545	     -4.66940527	      1.97773969	     -1.97773969	      4.66940527	     -0.94545958	      7.64087179	      3.43451928	     -3.43451928	     -7.64087179	      0.94545958	    -65.68598495	     19.29501986	     65.68598495	      6.62333176	     83.72212591	      0.00000000	      0.00000000	     -0.00000000	     -0.00000000	      0.00000000
      5.55555556	     -4.49838516	      1.90530364	     -1.90530364	      4.49838516	     -0.91083149	      7.36101972	      3.30872770	     -3.30872770	     -7.36101972	      0.91083149	    -65.55052746	     18.58832677	     65.55052746	      6.57316815	     82.05862141	      0.00000000	      0.00000000	     -0.00000000	     -0.00000000	      0.00000000
      5.65656566	     -4.32418255	      1.83151964	     -1.83151964	      4.32418255	     -0.87555901	      7.07595990	      3.18059528	     -3.18059528	     -7.07595990	      0.87555901	    -65.40981734	     17.86848287	     65.40981734	      6.50866131	     80.38205776	      0.00000000	      0.00000000	     -0.00000000	     -0.00000000	      0.00000000
      5.75757576	     -4.14697269	      1.75646191	     -1.75646191	      4.14697269	     -0.83967761	      6.78597912	      3.05025091	     -3.05025091	     -6.78597912	      0.83967761	    -65.26371846	     17.13621239	     65.26371846	      6.42880436	     78.69427869	      0.00000000	      0.00000000	     -0.00000000	     -0.00000000	      0.00000000
      5.85858586	     -3.96693741	      1.68020746	     -1.68020746	      3.96693741	     -0.80322413	      6.49137489	      2.91782834	     -2.91782834	     -6.49137489	      0.80322413	    -65.11213485	     16.39226660	     65.11213485	      6.33250214	     76.99721141	      0.00000000	      0.00000000	     -0.00000000	     -0.00000000	      0.00000000
      5.95959596	     -3.78426369	      1.60283549	     -1.60283549	      3.78426369	     -0.76623642	      6.19245321	      2.78346510	     -2.78346510	     -6.19245321	      0.76623642	    -64.95503156	     15.63741822	     64.95503156	      6.21855511	     75.29287348	      0.00000000	      0.00000000	     -0.00000000	     -0.00000000	      0.00000000
      6.06060606	     -3.59914209	      1.52442672	     -1.52442672	      3.59914209	     -0.72875306	      5.88952590	      2.64730136	     -2.64730136	     -5.88952590	      0.72875306	    -64.79247623	     14.87245466	     64.79247623	      6.08563611	     73.58338152	      0.00000000	      0.00000000	     -0.00000000	     -0.00000000	      0.00000000
